HIERARCHY
ROOT Hips
{
	OFFSET -3.958830 18.904000 13.208200
	CHANNELS 6 Xposition Yposition Zposition Zrotation Yrotation Xrotation 
	JOINT LHipJoint
	{
		OFFSET 0.000000 0.000000 0.000000
		CHANNELS 3 Zrotation Yrotation Xrotation
		JOINT LeftUpLeg
		{
			OFFSET 1.800000 -1.400000 0.085000
			CHANNELS 3 Zrotation Yrotation Xrotation
			JOINT LeftLeg
			{
				OFFSET 2.215000 -6.000000 0.000000
				CHANNELS 3 Zrotation Yrotation Xrotation
				JOINT LeftFoot
				{
					OFFSET 2.500000 -6.900000 0.000000
					CHANNELS 3 Zrotation Yrotation Xrotation
					JOINT LeftToeBase
					{
						OFFSET 0.200000 -0.500000 1.950000
						CHANNELS 3 Zrotation Yrotation Xrotation
						End Site
						{
							OFFSET 0.000000 0.000000 0.000000
						}
					}
				}
			}
		}
	}
	JOINT RHipJoint
	{
		OFFSET 0.000000 0.000000 0.000000
		CHANNELS 3 Zrotation Yrotation Xrotation
		JOINT RightUpLeg
		{
			OFFSET -1.800000 -1.400000 0.085000
			CHANNELS 3 Zrotation Yrotation Xrotation
			JOINT RightLeg
			{
				OFFSET -2.215000 -6.000000 0.000000
				CHANNELS 3 Zrotation Yrotation Xrotation
				JOINT RightFoot
				{
					OFFSET -2.500000 -6.900000 0.000000
					CHANNELS 3 Zrotation Yrotation Xrotation
					JOINT RightToeBase
					{
						OFFSET -0.200000 -0.500000 1.950000
						CHANNELS 3 Zrotation Yrotation Xrotation
						End Site
						{
							OFFSET 0.000000 0.000000 0.000000
						}
					}
				}
			}
		}
	}
	JOINT LowerBack
	{
		OFFSET 0.000000 0.000000 0.000000
		CHANNELS 3 Zrotation Yrotation Xrotation
		JOINT Spine
		{
			OFFSET -0.087000 1.940000 -0.288900
			CHANNELS 3 Zrotation Yrotation Xrotation
			JOINT Spine1
			{
				OFFSET 0.000000 1.950000 0.060000
				CHANNELS 3 Zrotation Yrotation Xrotation
				JOINT Neck
				{
					OFFSET 0.000000 0.000000 0.000000
					CHANNELS 3 Zrotation Yrotation Xrotation
					JOINT Neck1
					{
						OFFSET 0.000000 1.600000 0.340000
						CHANNELS 3 Zrotation Yrotation Xrotation
						JOINT Head
						{
							OFFSET 0.000000 1.667000 -0.240000
							CHANNELS 3 Zrotation Yrotation Xrotation
							End Site
							{
								OFFSET 0.000000 0.000000 0.000000
							}
						}
					}
				}
				JOINT LeftShoulder
				{
					OFFSET 0.000000 0.000000 0.000000
					CHANNELS 3 Zrotation Yrotation Xrotation
					JOINT LeftArm
					{
						OFFSET 2.700000 1.550000 -0.730000
						CHANNELS 3 Zrotation Yrotation Xrotation
						JOINT LeftForeArm
						{
							OFFSET 5.450000 0.000000 0.000000
							CHANNELS 3 Zrotation Yrotation Xrotation
							JOINT LeftHand
							{
								OFFSET 3.450000 0.000000 0.000000
								CHANNELS 3 Zrotation Yrotation Xrotation
								JOINT LeftHandIndex1
								{
									OFFSET 0.750000 0.000000 0.000000
									CHANNELS 3 Zrotation Yrotation Xrotation
									End Site
									{
										OFFSET 0.000000 0.000000 0.000000
									}
								}
							}
						}
					}
				}
				JOINT RightShoulder
				{
					OFFSET 0.000000 0.000000 0.000000
					CHANNELS 3 Zrotation Yrotation Xrotation
					JOINT RightArm
					{
						OFFSET -2.700000 1.550000 -0.730000
						CHANNELS 3 Zrotation Yrotation Xrotation
						JOINT RightForeArm
						{
							OFFSET -5.450000 0.000000 0.000000
							CHANNELS 3 Zrotation Yrotation Xrotation
							JOINT RightHand
							{
								OFFSET -3.450000 0.000000 0.000000
								CHANNELS 3 Zrotation Yrotation Xrotation
								JOINT RightHandIndex1
								{
									OFFSET -0.750000 0.000000 0.000000
									CHANNELS 3 Zrotation Yrotation Xrotation
									End Site
									{
										OFFSET 0.000000 0.000000 0.000000
									}
								}
							}
						}
					}
				}
			}
		}
	}
}
MOTION
Frames: 14
Frame Time: 0.016667
-0.099350 16.975740 -4.006240 -9.652103 -22.741710 -5.712616 -15.548978 14.886989 3.519240 8.869940 -1.955895 -5.960589 -13.146789 6.548516 9.826307 0.077050 5.018296 2.760445 0.184730 0.458030 0.156830 17.830766 -9.280480 2.539150 -4.627064 -2.617035 -14.141014 4.944435 -2.803844 0.122801 -0.337314 -2.240787 3.165511 0.169420 0.168550 0.207860 -2.024817 -7.537319 -7.757299 4.268757 -18.813980 33.105521 -5.054830 -17.363215 15.124278 2.952971 1.774488 -13.108754 -2.444611 1.978640 30.238284 2.669700 3.437800 -21.712530 12.924274 -21.998467 -0.207507 32.206638 -35.266697 -20.819190 48.351552 -15.213743 -9.195895 -4.402018 3.049776 0.269870 -0.075380 0.336700 0.000430 -20.059795 10.584635 11.058509 -24.959661 -18.129823 -1.007347 -5.977795 -7.755882 -0.901933 3.555650 -0.162455 0.001040 0.240750 0.024990 0.200950 
-0.041350 16.881900 -4.025830 -9.888059 -24.993219 -5.654577 -15.588577 14.968992 3.478111 8.218808 -1.596539 -5.085897 -12.744622 6.628017 9.777252 0.116567 5.054632 2.814593 0.191760 0.487740 0.128470 17.808441 -9.178646 2.573393 -3.691393 -2.396542 -16.248058 4.887308 -2.482289 -0.447076 -0.268036 -2.072968 3.255405 0.213120 0.268320 0.165390 -1.903326 -7.723402 -7.771934 3.350718 -17.924094 34.150242 -4.738303 -16.646019 15.635984 3.001444 1.639564 -13.279069 -2.500413 2.984186 29.139236 4.448380 3.581560 -19.239640 13.244600 -22.699733 -0.742942 30.095628 -34.804143 -20.121715 45.152037 -12.098932 -7.829025 -4.435516 3.037818 0.205390 -0.027730 0.281350 0.059390 -20.574055 11.529997 11.149721 -25.879273 -18.066460 -1.196917 -6.642681 -7.973403 -0.987277 3.599497 -0.196194 -0.033250 0.314840 -0.002810 0.244740 
0.039130 16.800710 -4.042890 -10.157520 -25.263836 -6.501815 -15.714830 15.221051 3.452555 7.602552 -1.050099 -3.901745 -11.778619 6.637288 9.445790 0.097061 5.148325 2.846063 0.168030 0.494360 0.073960 17.702587 -9.027652 2.506182 -3.348050 -2.506650 -17.022190 5.217300 -2.438936 -0.090671 -0.190817 -2.029453 3.299481 0.275520 0.403350 0.134630 -1.552708 -8.339842 -7.755732 2.087969 -16.936428 36.323221 -3.831015 -15.959252 17.237990 3.523550 1.734777 -13.280288 -2.008551 2.381295 26.587237 4.120420 2.706680 -17.611610 14.317280 -23.626628 -1.514510 30.430766 -35.148188 -21.154028 43.612471 -7.395394 -6.708436 -4.624907 2.956070 0.119630 0.063770 0.195100 0.092450 -23.089416 12.089530 11.715835 -24.280067 -18.432620 -2.788066 -5.891410 -11.546668 -1.116217 3.823241 0.003023 -0.089750 0.424090 0.029160 0.281720 
0.094030 16.717200 -4.068220 -9.382473 -27.545986 -6.793175 -15.783491 15.305668 3.509830 6.246169 -0.752456 -3.235807 -11.841570 6.568021 8.661720 0.204672 5.038641 2.796741 0.134060 0.407730 0.097920 17.654742 -8.929087 2.450676 -2.989956 -2.436413 -19.502097 5.560158 -2.590085 0.927370 -0.175793 -1.824127 3.307103 0.138810 0.251080 0.248930 -1.319409 -8.665374 -7.954116 -0.594785 -15.628755 37.569765 -2.612915 -15.259074 15.438061 4.391924 1.725155 -13.036900 -2.823918 5.744870 31.720851 2.695900 6.504470 -15.930910 10.024529 -25.618855 -1.227195 24.057950 -33.845873 -18.440750 43.673121 -11.399391 -7.339699 -4.485792 3.140376 0.169120 0.018160 0.274200 0.011270 -20.334582 15.774123 10.788779 -30.002835 -17.285188 -3.387443 -8.073484 -11.808164 -0.866636 3.761930 -0.341425 0.021910 0.187260 0.048930 0.230940 
0.147680 16.641460 -4.097170 -9.548297 -30.279381 -6.477479 -15.849614 15.280262 3.561528 6.155071 -0.698359 -2.876313 -12.656008 6.533281 7.445912 0.255171 5.100534 2.779293 0.149500 0.414860 0.126050 17.633000 -8.755957 2.463593 -1.015410 -1.778001 -21.398894 5.562095 -2.544946 1.761315 -0.140179 -1.657116 3.361058 0.132390 0.242500 0.288160 -1.133050 -8.884336 -8.076102 -1.895621 -14.319527 38.899236 -1.888521 -14.156166 14.834956 5.140431 1.617572 -12.439745 -2.822913 7.809367 32.759437 1.141320 9.100500 -14.448060 7.202074 -26.302760 -1.191632 22.427067 -34.167355 -17.791713 41.651360 -10.256299 -6.675290 -4.443059 3.174122 0.158680 0.048370 0.286420 0.023030 -18.873312 17.362793 10.155540 -33.080301 -16.646608 -3.308326 -9.255386 -10.717506 -0.952668 3.653901 -0.543026 0.039510 0.134410 0.021020 0.222380 
0.194400 16.565530 -4.109330 -8.124728 -32.210161 -6.738483 -16.021512 15.374001 3.588741 4.385661 -0.347950 -2.536529 -12.862605 6.413981 6.170088 0.269666 5.095185 2.794120 0.145770 0.420270 0.104820 17.546777 -8.443290 2.369462 -0.348349 -1.486839 -23.001029 5.602636 -2.471310 2.416743 -0.073446 -1.557497 3.395773 0.160120 0.288340 0.286010 -0.712793 -9.589718 -8.243097 -5.244892 -12.351395 38.613975 -0.423402 -13.111888 15.369369 5.492802 1.481999 -11.799376 -3.005287 9.608217 33.234036 1.355660 10.473140 -12.069950 5.225129 -27.219594 -1.647772 17.206733 -34.299805 -16.360754 42.948751 -9.852213 -6.834148 -4.452929 3.204018 0.111640 0.096600 0.241220 0.034290 -17.715953 19.310202 9.599510 -35.077165 -14.367995 -5.166968 -12.303829 -13.111989 -0.774299 3.705526 -0.777293 0.023290 0.131080 0.025060 0.229680 
0.247910 16.516670 -4.116140 -6.801995 -32.698581 -7.197500 -16.183228 15.493057 3.629696 3.126605 -0.243243 -2.474365 -13.361959 6.410420 5.608046 0.280340 5.176234 2.766556 0.131380 0.395650 0.103950 17.450666 -8.192011 2.240872 -0.109525 -1.414157 -24.014575 5.928232 -2.626882 3.727402 -0.025008 -1.539579 3.389091 0.163630 0.313920 0.321940 -0.308934 -10.272602 -8.363830 -7.956132 -11.188360 38.596372 0.342895 -12.742377 16.301727 6.444519 1.698936 -11.223900 -2.683533 10.140496 33.595130 -0.387240 11.439680 -10.506040 3.337958 -28.264552 -2.741302 11.085215 -34.228118 -14.855918 44.085894 -10.054007 -7.143744 -4.479717 3.239263 0.069940 0.155260 0.208250 0.021700 -18.043196 20.910204 9.778908 -33.996142 -12.045023 -7.877169 -15.923979 -16.721028 -0.255290 3.847206 -0.977308 0.023210 0.098850 0.045910 0.219980 
0.304940 16.459080 -4.118190 -5.697727 -32.315574 -6.353946 -16.222817 15.586039 3.648566 1.468640 -0.531030 -4.591310 -13.421706 6.472804 6.949062 0.249752 5.065693 2.833879 0.097870 0.355780 0.072110 17.407029 -8.143419 2.240408 0.522473 -1.235225 -26.975479 5.793827 -2.866604 6.334930 0.047818 -1.447367 3.431138 0.159750 0.393510 0.312500 -0.186779 -10.523558 -8.361232 -8.734116 -11.467683 37.696844 0.222892 -13.153721 16.263667 7.324354 1.412518 -11.097267 -3.065375 10.543508 33.050743 -0.379180 11.398160 -8.377340 1.719588 -28.496334 -3.256893 3.604605 -33.404281 -13.073531 47.096951 -12.269224 -8.449641 -4.486934 3.215226 0.013150 0.209040 0.149850 0.042400 -18.241336 21.695906 10.032696 -33.054353 -10.529205 -8.664408 -17.149853 -17.353235 -0.155963 3.886947 -1.058251 -0.001720 0.130140 0.056590 0.240190 
0.366480 16.407310 -4.116740 -4.955704 -32.091998 -6.598172 -16.151775 15.524997 3.717522 0.410128 -0.687399 -5.063231 -13.858696 6.546872 7.616325 0.223264 4.998806 2.819732 0.127500 0.367980 0.105440 17.446232 -8.306185 2.263750 1.148642 -1.149943 -28.024065 5.684548 -3.315379 9.113030 0.022887 -1.457725 3.392357 0.154030 0.329680 0.312330 -0.314057 -10.168861 -8.336148 -8.159636 -11.382338 38.288564 -0.490488 -12.676857 15.958179 7.825959 1.749927 -11.358023 -2.670592 10.049509 34.438214 0.331380 10.826000 -9.544110 0.333459 -29.600811 -3.282962 -2.392658 -33.455622 -11.887806 48.489838 -13.214310 -9.402371 -4.346137 3.197874 0.073410 0.149750 0.188260 0.023200 -17.780303 22.793307 10.528210 -31.068844 -10.249691 -10.087301 -21.434850 -18.259585 0.419900 3.927097 -1.216789 0.010240 0.108440 0.053500 0.216490 
0.449340 16.372490 -4.119920 -4.871467 -31.391839 -7.000460 -15.987856 15.433660 3.782929 -0.017655 -1.079387 -5.669574 -14.125415 6.784621 9.391921 0.075547 5.104085 2.761341 0.024600 0.154670 0.124410 17.530103 -8.609184 2.376224 1.912156 -1.048394 -28.511190 5.995672 -3.993287 11.757526 -0.004694 -1.510452 3.340467 0.048850 0.300500 0.283420 -0.643085 -9.531296 -8.268510 -5.961628 -12.151560 40.753374 -1.612850 -12.668748 15.162912 8.676876 1.595189 -13.174640 -3.291734 9.223640 35.946950 0.046320 9.838570 -12.390510 -1.312930 -29.992470 -0.779709 -7.169622 -32.516975 -12.026925 49.791867 -14.069841 -10.829204 -4.274685 3.025585 0.263710 0.073580 0.202030 -0.075190 -17.871841 23.538245 10.998330 -28.795178 -11.324555 -11.723478 -25.186241 -18.766918 1.049206 3.933276 -1.169668 -0.096620 0.176580 0.180830 0.112630 
0.522450 16.324270 -4.125530 -5.015185 -29.464645 -5.606428 -15.897249 15.300029 3.822774 -0.816840 -1.719294 -7.852298 -14.062689 6.846916 11.113535 -0.042608 5.026687 2.780410 -0.042580 0.032250 0.139870 17.566619 -8.765062 2.555436 2.746267 -0.670074 -30.449293 6.685479 -4.621495 14.274984 0.000497 -1.608853 3.291719 -0.000190 0.302570 0.231020 -0.895899 -8.990519 -8.236444 -3.067367 -13.150116 41.316854 -2.248903 -12.644319 14.884885 9.622195 1.579186 -14.618754 -3.070815 7.701440 35.553291 -0.017230 8.323170 -13.952340 -3.716970 -29.237750 3.384945 -10.478873 -34.746622 -13.078392 51.599332 -16.863147 -13.413085 -4.289684 2.910700 0.336030 0.035970 0.180410 -0.133060 -17.209562 23.022198 10.529285 -26.393433 -11.545130 -13.064605 -29.886357 -18.818375 1.502953 3.893721 -1.255418 -0.172390 0.244980 0.246030 0.063380 
0.605230 16.296880 -4.127770 -4.774067 -28.593317 -5.081229 -15.773428 15.092077 3.868888 -1.893083 -2.241658 -9.008075 -14.058620 6.910002 12.511432 -0.130600 5.018376 2.754379 -0.120770 -0.138260 0.137610 17.652156 -8.956975 2.706003 3.454426 -0.322452 -31.774686 7.481035 -5.498516 17.264396 -0.032925 -1.884511 3.159787 -0.092650 0.284200 0.236640 -1.240997 -8.275430 -8.238833 -0.432629 -13.852823 42.601768 -3.323870 -12.079416 14.105181 10.195902 1.994591 -16.480597 -2.290114 7.784991 37.150011 0.336770 8.478190 -13.941870 -6.708550 -29.650045 7.782008 -12.164771 -35.486894 -13.973724 50.247056 -20.509017 -15.188894 -4.354501 2.937817 0.442900 -0.004540 0.174670 -0.189760 -15.301584 23.492129 9.835372 -25.568862 -11.160137 -14.773012 -34.892036 -19.076701 2.083241 3.820367 -1.344577 -0.229790 0.227530 0.325500 0.000600 
0.677660 16.257520 -4.130030 -4.889061 -28.826194 -3.887019 -15.701039 14.871467 3.856649 -2.808068 -2.440094 -10.385674 -13.877280 6.863852 12.994745 -0.117980 4.810154 2.836496 -0.096480 -0.110850 0.153030 17.725927 -8.968009 2.954454 5.262252 0.794618 -33.509380 7.990221 -6.309595 21.095480 -0.105668 -2.279831 3.018250 -0.101770 0.260380 0.209560 -1.487494 -7.731390 -8.280788 2.330778 -14.193877 42.551569 -4.083214 -11.069818 13.699006 10.692599 1.509891 -17.316790 -2.847174 7.658176 37.656946 0.221040 8.177990 -12.852990 -9.181757 -29.212414 10.664951 -15.084030 -35.769936 -12.774675 46.367065 -23.906378 -15.536209 -4.228654 3.028501 0.438990 -0.036490 0.183990 -0.160760 -13.603637 24.235567 9.081625 -26.101717 -9.929367 -15.972127 -38.363118 -19.329233 2.333307 3.789813 -1.461483 -0.214240 0.213800 0.273700 0.016600 
0.728390 16.213380 -4.119150 -4.341715 -27.630792 -2.604759 -15.726554 14.692756 3.889151 -3.956130 -2.828452 -11.854905 -14.509382 6.930878 13.471039 0.006809 4.578956 2.922871 0.089270 0.213710 0.176550 17.734631 -8.840633 3.090121 6.125235 1.587704 -34.806593 8.700782 -6.892041 23.755455 -0.171169 -2.700695 2.921269 0.058790 0.216540 0.161040 -1.544884 -7.569271 -8.341900 4.237872 -14.361593 40.900499 -4.424792 -10.711743 14.970031 11.395212 0.444694 -16.672345 -4.149566 7.715194 36.068149 0.485990 7.568260 -11.354740 -11.589579 -28.433296 11.642992 -19.361706 -36.288481 -12.019849 45.610569 -27.159127 -16.597813 -4.027550 3.158167 0.288140 -0.029750 0.199110 -0.036440 -12.344275 24.736180 8.116319 -26.197959 -8.285319 -17.149904 -42.604839 -20.887863 2.753601 3.795356 -1.755185 -0.107500 0.174040 0.066750 0.115420 
